HIERARCHY
ROOT Hips
{
	OFFSET 0.00000 0.00000 0.00000
	CHANNELS 6 Xposition Yposition Zposition Zrotation Yrotation Xrotation 
	JOINT RightUpLegDummy
	{
		OFFSET 0 0 0
		CHANNELS 3 Zrotation Yrotation Xrotation
		JOINT RightUpLeg
		{
			OFFSET -3.52197 -3.41223 0.04002
			CHANNELS 3 Zrotation Yrotation Xrotation
			JOINT RightLeg
			{
				OFFSET 0.00006 -17.42390 1.60435
				CHANNELS 3 Zrotation Yrotation Xrotation
				JOINT RightFoot
				{
					OFFSET 0.06153 -16.50078 -1.63901
					CHANNELS 3 Zrotation Yrotation Xrotation
					JOINT RightToes
					{
						OFFSET 0.00298 -1.73825 3.34613
						CHANNELS 3 Zrotation Yrotation Xrotation
						End Site
						{
							OFFSET 0.00480 -0.05416 3.85043
						}
					}
				}
			}
		}
	}
	JOINT SpineDummy
	{
		OFFSET 0 0 0
		CHANNELS 3 Zrotation Yrotation Xrotation
		JOINT Spine
		{
			OFFSET 0.00000 4.68130 0.00000
			CHANNELS 3 Zrotation Yrotation Xrotation
			JOINT Spine1
			{
				OFFSET -0.00000 10.10138 0.05002
				CHANNELS 3 Zrotation Yrotation Xrotation
				JOINT HEadDummy
				{
					OFFSET 0 0 0
					CHANNELS 3 Zrotation Yrotation Xrotation
					JOINT Head
					{
						OFFSET -0.00000 3.43865 0.00438
						CHANNELS 3 Zrotation Yrotation Xrotation
						End Site
						{
							OFFSET -0.11417 5.02924 0.98962
						}
					}
				}
				JOINT LeftShoulder1Dummy
				{
					OFFSET 0 0 0
					CHANNELS 3 Zrotation Yrotation Xrotation
					JOINT LeftShoulder1
					{
						OFFSET 3.53937 -0.14262 -0.08662
						CHANNELS 3 Zrotation Yrotation Xrotation
						JOINT LeftArm
						{
							OFFSET 4.04833 -0.00133 0.12681
							CHANNELS 3 Zrotation Yrotation Xrotation
							JOINT LeftForeArm
							{
								OFFSET 10.33880 -0.01036 -0.55515
								CHANNELS 3 Zrotation Yrotation Xrotation
								JOINT LeftHand
								{
									OFFSET 8.69677 0.07543 0.40060
									CHANNELS 3 Zrotation Yrotation Xrotation
									End Site
									{
										OFFSET 5.28377 -0.21905 0.59205
									}
								}
							}
						}
					}
				}
				JOINT RightShoulderDummy
				{
					OFFSET 0 0 0
					CHANNELS 3 Zrotation Yrotation Xrotation
					JOINT RightShoulder
					{
						OFFSET -3.53937 -0.14262 -0.08660
						CHANNELS 3 Zrotation Yrotation Xrotation
						JOINT RightArm
						{
							OFFSET -4.04833 -0.00133 0.12683
							CHANNELS 3 Zrotation Yrotation Xrotation
							JOINT RightForeArm
							{
								OFFSET -10.37987 -0.01039 -0.55511
								CHANNELS 3 Zrotation Yrotation Xrotation
								JOINT RightHand
								{
									OFFSET -8.67398 0.07538 0.40058
									CHANNELS 3 Zrotation Yrotation Xrotation
									End Site
									{
										OFFSET -5.24810 -0.21916 0.59204
									}
								}
							}
						}
					}
				}
			}
		}
	}
	JOINT LeftUpLegDummy
	{
		OFFSET 0 0 0
		CHANNELS 3 Zrotation Yrotation Xrotation
		JOINT LeftUpLeg
		{
			OFFSET 3.52197 -3.41223 0.04002
			CHANNELS 3 Zrotation Yrotation Xrotation
			JOINT LeftLeg
			{
				OFFSET -0.00012 -17.42399 1.60337
				CHANNELS 3 Zrotation Yrotation Xrotation
				JOINT LeftFoot
				{
					OFFSET -0.09972 -16.50070 -1.63802
					CHANNELS 3 Zrotation Yrotation Xrotation
					JOINT LeftToes
					{
						OFFSET -0.01575 -1.73823 3.34611
						CHANNELS 3 Zrotation Yrotation Xrotation
						End Site
						{
							OFFSET 0.03150 -0.01868 3.85031
						}
					}
				}
			}
		}
	}
}
MOTION
Frames: 16
Frame Time: 0.033333
-0.7706 40.1490 -3.2766 -1.1605 -11.3267 -2.0391 0.0000 0.0000 0.0000 1.8286 -1.6127 0.8701 -2.1720 -10.5754 4.3032 -2.0543 0.1361 -2.5569 0.0000 -0.0000 0.0000 0.0000 0.0000 0.0000 1.3710 -0.8154 2.8694 3.3367 -1.5594 1.2494 -0.0000 0.0000 -0.0000 -1.7888 2.9355 -5.4753 -0.0000 0.0000 -0.0000 -34.2783 -2.6966 2.4994 -45.4045 -16.2352 -16.3501 -10.5383 4.9992 52.3327 9.6562 -4.7545 -0.8042 -0.0000 0.0000 -0.0000 34.7841 5.1506 3.5313 39.5610 7.3006 -16.1939 10.7176 -0.7491 25.9954 -12.7601 1.8865 -0.7850 0.0000 0.0000 0.0000 4.0277 3.2615 2.0389 3.4951 14.7240 6.2270 -1.9047 0.1306 -3.8993 0.0000 0.0000 -0.0000
-0.7943 40.1458 -3.2889 -1.1206 -11.2201 -2.1298 0.0000 0.0000 0.0000 1.8286 -1.6465 0.8985 -2.1913 -10.6740 4.4261 -2.1257 0.1410 -2.6469 0.0000 -0.0000 0.0000 0.0000 0.0000 0.0000 1.5088 -0.8440 2.9742 3.2016 -1.5594 1.3051 -0.0000 0.0000 -0.0000 -2.1384 2.8305 -5.8040 -0.0000 0.0000 -0.0000 -34.2000 -2.7175 2.5029 -45.4782 -16.2309 -16.1952 -10.6299 5.0045 52.1288 9.9214 -4.8152 -0.8325 -0.0000 0.0000 -0.0000 34.8356 5.1640 3.5413 39.5095 7.3448 -16.1685 10.7059 -0.7973 26.4025 -12.8078 1.7974 -0.7788 0.0000 0.0000 0.0000 4.0443 3.2790 2.0831 3.4647 14.5887 6.2533 -1.9295 0.1322 -3.9016 0.0000 0.0000 -0.0000
-0.8379 40.1394 -3.3140 -1.0526 -11.0771 -2.2626 0.0000 0.0000 0.0000 1.8286 -1.6647 0.9095 -2.2583 -10.8319 4.6496 -2.2064 0.1466 -2.7938 0.0000 -0.0000 0.0000 0.0000 0.0000 0.0000 1.7093 -0.8574 3.1603 3.1129 -1.5600 1.3465 -0.0000 0.0000 -0.0000 -2.9707 2.8881 -6.5196 -0.0000 0.0000 -0.0000 -34.2073 -2.7465 2.5150 -45.5391 -16.2022 -16.1038 -10.6683 5.0036 52.1421 10.5246 -5.0500 -0.9052 -0.0000 0.0000 -0.0000 34.8356 5.1762 3.5463 39.4256 7.3782 -16.0813 10.7239 -0.7637 26.6145 -12.8790 1.5827 -0.7610 0.0000 0.0000 0.0000 4.0908 3.3382 2.1201 3.3964 14.3697 6.3332 -1.9370 0.1327 -3.9114 0.0000 0.0000 -0.0000
-0.8849 40.1331 -3.3388 -0.9649 -10.9964 -2.3289 0.0000 0.0000 0.0000 1.8286 -1.6436 0.8337 -2.3612 -10.9515 4.8875 -2.2659 0.1509 -2.9249 0.0000 -0.0000 0.0000 0.0000 0.0000 0.0000 1.8968 -0.8265 3.3711 3.0738 -1.5171 1.1940 -0.0000 0.0000 -0.0000 -3.8716 3.1701 -7.1353 -0.0000 0.0000 -0.0000 -34.3191 -2.7973 2.5426 -45.5109 -16.1110 -16.1297 -10.6484 4.9999 52.2682 10.8959 -5.0636 -0.9399 -0.0000 0.0000 -0.0000 34.7671 5.1707 3.5380 39.3756 7.3992 -16.0689 10.7456 -0.8875 26.5834 -12.9197 1.4261 -0.7472 0.0000 0.0000 0.0000 4.1400 3.4291 2.1061 3.2866 14.1858 6.3921 -1.9675 0.1347 -3.9232 0.0000 0.0000 -0.0000
-0.9283 40.1275 -3.3578 -0.8788 -10.9417 -2.3347 0.0000 0.0000 0.0000 1.8286 -1.6233 0.7152 -2.4443 -11.0301 5.0892 -2.3166 0.1544 -3.0276 0.0000 -0.0000 0.0000 0.0000 0.0000 0.0000 2.1798 -0.7953 3.5462 2.8304 -1.4327 0.9244 -0.0000 0.0000 -0.0000 -4.3439 3.3508 -7.1081 -0.0000 0.0000 -0.0000 -34.3726 -2.8570 2.5701 -45.4162 -16.1017 -16.2608 -10.5889 5.0012 52.2506 10.7045 -4.7166 -0.8935 -0.0000 0.0000 -0.0000 34.7078 5.1527 3.5255 39.4904 7.2429 -16.1026 10.7253 -0.8934 26.6868 -12.9177 1.2998 -0.7339 0.0000 0.0000 0.0000 4.1867 3.5292 2.0441 3.1697 14.0129 6.4478 -2.0525 0.1401 -3.9438 0.0000 0.0000 -0.0000
-0.9673 40.1197 -3.3753 -0.8146 -10.8875 -2.3906 0.0000 0.0000 0.0000 1.8194 -1.6460 0.6570 -2.4717 -11.0596 5.2907 -2.3621 0.1577 -3.1427 0.0000 -0.0000 0.0000 0.0000 0.0000 0.0000 2.5994 -0.7930 3.6702 2.3494 -1.3387 0.7638 -0.0000 0.0000 -0.0000 -4.3564 3.3271 -6.3870 -0.0000 0.0000 -0.0000 -34.3132 -2.8508 2.5638 -45.3333 -16.3030 -16.5692 -10.4101 5.0025 52.2768 10.3284 -4.4096 -0.8353 -0.0000 0.0000 -0.0000 34.6923 5.1416 3.5196 39.7488 6.8062 -16.0273 10.6891 -0.3154 26.7677 -12.8305 1.0381 -0.7018 0.0000 0.0000 0.0000 4.2379 3.6258 1.9886 3.1075 13.8251 6.6156 -2.1271 0.1449 -4.0061 0.0000 0.0000 -0.0000
-1.0044 40.1068 -3.3943 -0.7537 -10.8720 -2.5824 0.0000 0.0000 0.0000 1.7952 -1.7052 0.6996 -2.4836 -11.0124 5.5815 -2.3984 0.1561 -3.3142 0.0000 -0.0000 0.0000 0.0000 0.0000 0.0000 2.9584 -0.7875 3.8191 1.9578 -1.2601 0.7360 -0.0000 0.0000 -0.0000 -4.3283 3.3854 -5.4161 -0.0000 0.0000 -0.0000 -34.2752 -2.7691 2.5284 -45.2923 -16.5317 -16.8699 -10.2090 4.9985 52.4812 10.2771 -4.4503 -0.8343 -0.0000 0.0000 -0.0000 34.6807 5.1433 3.5193 39.9066 6.3839 -15.8930 10.6869 0.4390 26.5386 -12.6434 0.8401 -0.6712 0.0000 0.0000 0.0000 4.2912 3.7386 2.0189 3.0937 13.6441 6.9201 -2.1570 0.1469 -4.1198 0.0000 0.0000 -0.0000
-1.0472 40.0871 -3.4128 -0.6729 -10.8455 -2.8775 0.0000 0.0000 0.0000 1.7717 -1.7590 0.7881 -2.5577 -10.9815 6.0101 -2.4228 0.1518 -3.5558 0.0000 -0.0000 0.0000 0.0000 0.0000 0.0000 3.0453 -0.7779 4.0532 1.9300 -1.2396 0.6930 -0.0000 0.0000 -0.0000 -4.5305 3.6397 -4.6237 -0.0000 0.0000 -0.0000 -34.3547 -2.7224 2.5147 -45.2464 -16.4917 -16.7177 -10.2984 4.9968 52.5011 10.5515 -4.6453 -0.8739 -0.0000 0.0000 -0.0000 34.6242 5.1414 3.5135 39.8358 6.3189 -15.8448 10.7183 0.6395 26.2542 -12.5066 1.0806 -0.6879 0.0000 0.0000 0.0000 4.3629 3.9165 2.1198 3.0489 13.3808 7.3023 -2.2141 0.1505 -4.2760 0.0000 0.0000 -0.0000
-1.1006 40.0629 -3.4341 -0.5950 -10.6776 -3.1578 0.0000 0.0000 0.0000 1.7818 -1.7881 0.8418 -2.6960 -11.1207 6.5030 -2.4497 0.1467 -3.8296 0.0000 -0.0000 0.0000 0.0000 0.0000 0.0000 2.9181 -0.8310 4.3005 2.1568 -1.3284 0.6191 -0.0000 0.0000 -0.0000 -4.8355 3.8358 -4.2024 -0.0000 0.0000 -0.0000 -34.4510 -2.7657 2.5382 -45.1977 -16.2291 -16.1093 -10.6951 5.0043 52.1070 10.8586 -4.7438 -0.9091 -0.0000 0.0000 -0.0000 34.5318 5.1272 3.4997 39.6992 6.4818 -15.7913 10.7680 0.5334 26.1824 -12.6257 1.5907 -0.7466 0.0000 0.0000 0.0000 4.4863 4.1894 2.1554 2.9298 12.8850 7.7267 -2.3138 0.1569 -4.4513 0.0000 0.0000 -0.0000
-1.1581 40.0368 -3.4657 -0.5511 -10.4001 -3.3180 0.0000 0.0000 0.0000 1.8167 -1.8227 0.7617 -2.8082 -11.3684 7.0045 -2.5083 0.1436 -4.1001 0.0000 -0.0000 0.0000 0.0000 0.0000 0.0000 2.8066 -0.9554 4.4454 2.3475 -1.4887 0.6096 -0.0000 0.0000 -0.0000 -5.0718 3.8380 -4.1609 -0.0000 0.0000 -0.0000 -34.4302 -2.7967 2.5494 -45.2399 -16.0791 -15.6877 -10.9605 5.0127 51.7355 11.0795 -4.8310 -0.9362 -0.0000 0.0000 -0.0000 34.4685 5.1157 3.4894 39.6355 6.5617 -15.5965 10.8317 0.7570 26.1179 -12.9622 1.8378 -0.7926 0.0000 0.0000 0.0000 4.6452 4.5218 1.9915 2.8009 12.2337 8.2248 -2.3576 0.1598 -4.6312 0.0000 0.0000 -0.0000
-1.2096 40.0083 -3.5061 -0.5277 -10.1988 -3.3515 0.0000 0.0000 0.0000 1.8289 -1.8955 0.4998 -2.8307 -11.5014 7.5557 -2.6043 0.1424 -4.3757 0.0000 -0.0000 0.0000 0.0000 0.0000 0.0000 2.8208 -1.0547 4.5090 2.3801 -1.5965 0.6034 -0.0000 0.0000 -0.0000 -5.2781 3.8210 -4.3465 -0.0000 0.0000 -0.0000 -34.3303 -2.7462 2.5227 -45.3738 -16.1660 -15.8598 -10.8345 5.0128 51.7812 11.2130 -4.9685 -0.9603 -0.0000 0.0000 -0.0000 34.4899 5.1177 3.4922 39.5356 6.6177 -15.4650 10.8712 0.9466 26.0404 -13.2080 1.8414 -0.8085 0.0000 0.0000 0.0000 4.7800 4.8449 1.6520 2.7451 11.6745 8.8015 -2.3419 0.1588 -4.8281 0.0000 0.0000 -0.0000
-1.2597 39.9797 -3.5437 -0.5058 -10.0935 -3.3603 0.0000 0.0000 0.0000 1.8378 -1.9660 0.2168 -2.8276 -11.5381 8.0836 -2.6868 0.1404 -4.6341 0.0000 -0.0000 0.0000 0.0000 0.0000 0.0000 2.8910 -1.0822 4.6306 2.3454 -1.6122 0.4391 -0.0000 0.0000 -0.0000 -5.5091 3.8351 -4.4940 -0.0000 0.0000 -0.0000 -34.2934 -2.7140 2.5074 -45.4263 -16.2626 -16.2185 -10.6122 5.0108 51.9355 11.1512 -4.9032 -0.9490 -0.0000 0.0000 -0.0000 34.5591 5.1236 3.5011 39.3218 6.8578 -15.6700 10.8288 0.3594 26.4014 -13.1715 2.0942 -0.8330 0.0000 0.0000 0.0000 4.8889 5.1350 1.3323 2.7378 11.2328 9.3299 -2.4027 0.1627 -5.0275 0.0000 0.0000 -0.0000
-1.3202 39.9501 -3.5738 -0.5020 -9.9139 -3.4358 0.0000 0.0000 0.0000 1.9388 -1.9338 0.0694 -2.9601 -11.7417 8.5361 -2.6806 0.1335 -4.8741 0.0000 -0.0000 0.0000 0.0000 0.0000 0.0000 2.9401 -1.1059 4.8484 2.3459 -1.6248 0.1499 -0.0000 0.0000 -0.0000 -5.6603 3.7385 -4.4076 -0.0000 0.0000 -0.0000 -34.3532 -2.7891 2.5415 -45.2946 -16.2151 -16.2639 -10.6149 5.0116 51.9086 10.8371 -4.5199 -0.8882 -0.0000 0.0000 -0.0000 34.5611 5.1228 3.5013 39.1637 7.1517 -16.0633 10.7217 -0.6709 27.1751 -13.0174 2.5733 -0.8734 0.0000 0.0000 0.0000 5.0323 5.4384 1.1080 2.7173 10.6893 9.8181 -2.5762 0.1688 -5.2347 0.0000 0.0000 -0.0000
-1.3916 39.9183 -3.6045 -0.5217 -9.6460 -3.5293 0.0000 0.0000 0.0000 2.1566 -1.7640 -0.0259 -3.2721 -12.1543 8.9570 -2.6021 0.1230 -5.1024 0.0000 -0.0000 0.0000 0.0000 0.0000 0.0000 2.9943 -1.1448 5.0293 2.3452 -1.6551 -0.0860 -0.0000 0.0000 -0.0000 -5.6167 3.5773 -4.1141 -0.0000 0.0000 -0.0000 -34.4053 -2.8940 2.5871 -45.1129 -16.1857 -16.1604 -10.6795 5.0047 52.1029 10.4605 -4.2098 -0.8300 -0.0000 0.0000 -0.0000 34.4628 5.1217 3.4914 39.2016 7.2247 -16.3007 10.6476 -1.2499 27.5731 -12.9703 2.6909 -0.8823 0.0000 0.0000 0.0000 5.2214 5.8137 0.8685 2.6665 9.9950 10.3445 -2.7283 0.1734 -5.4324 0.0000 0.0000 -0.0000
-1.4642 39.8866 -3.6426 -0.5240 -9.4791 -3.5242 0.0000 0.0000 0.0000 2.3719 -1.5684 -0.2744 -3.5906 -12.4854 9.4213 -2.5711 0.1156 -5.3200 0.0000 -0.0000 0.0000 0.0000 0.0000 0.0000 3.1065 -1.1111 5.0701 2.2221 -1.5935 -0.2478 -0.0000 0.0000 -0.0000 -5.4309 3.5274 -3.7573 -0.0000 0.0000 -0.0000 -34.3606 -2.9293 2.5985 -45.0388 -16.3219 -16.2708 -10.5530 4.9840 52.8072 10.2711 -4.3951 -0.8293 -0.0000 0.0000 -0.0000 34.4074 5.1263 3.4884 39.2866 7.0781 -16.3558 10.6510 -1.3087 27.2456 -12.9605 2.2752 -0.8382 0.0000 0.0000 0.0000 5.3929 6.2571 0.5332 2.5992 9.3481 10.8476 -2.8319 0.1760 -5.5722 0.0000 0.0000 -0.0000
-1.5364 39.8597 -3.6833 -0.4774 -9.4540 -3.4438 0.0000 0.0000 0.0000 2.4643 -1.5005 -0.6410 -3.7202 -12.5649 9.8955 -2.6649 0.1150 -5.5247 0.0000 -0.0000 0.0000 0.0000 0.0000 0.0000 3.2437 -0.9946 5.0642 1.9537 -1.4204 -0.4603 -0.0000 0.0000 -0.0000 -5.2467 3.4967 -3.3966 -0.0000 0.0000 -0.0000 -34.2364 -2.9085 2.5820 -45.0351 -16.4733 -16.4452 -10.4010 4.9661 53.4268 10.2843 -4.9364 -0.8742 -0.0000 0.0000 -0.0000 34.5362 5.1419 3.5060 39.2176 6.8867 -16.4055 10.6735 -1.3567 26.8536 -12.7794 1.8019 -0.7776 0.0000 0.0000 0.0000 5.5166 6.6914 0.2318 2.5005 8.8419 11.1473 -3.0271 0.1847 -5.6228 0.0000 0.0000 -0.0000
